<svg xmlns="http://www.w3.org/2000/svg" xmlns:xlink="http://www.w3.org/1999/xlink" width="100" zoomAndPan="magnify" viewBox="0 0 75 74.999997" height="100" preserveAspectRatio="xMidYMid meet" version="1.0"><defs><clipPath id="60e5e69de5"><path d="M 0 7.5 L 75 7.5 L 75 44 L 0 44 Z M 0 7.5 " clip-rule="nonzero"/></clipPath><clipPath id="bfa933bdc9"><path d="M 53 48 L 59 48 L 59 64.5 L 53 64.5 Z M 53 48 " clip-rule="nonzero"/></clipPath><clipPath id="fa3acaac73"><path d="M 23 49 L 29 49 L 29 64.5 L 23 64.5 Z M 23 49 " clip-rule="nonzero"/></clipPath><clipPath id="506fd66448"><path d="M 38 49 L 44 49 L 44 64.5 L 38 64.5 Z M 38 49 " clip-rule="nonzero"/></clipPath><clipPath id="989860e0ee"><path d="M 15 49 L 22 49 L 22 64.5 L 15 64.5 Z M 15 49 " clip-rule="nonzero"/></clipPath><clipPath id="0ac48c500e"><path d="M 30 49 L 37 49 L 37 64.5 L 30 64.5 Z M 30 49 " clip-rule="nonzero"/></clipPath><clipPath id="ca89627f45"><path d="M 45 49 L 52 49 L 52 64.5 L 45 64.5 Z M 45 49 " clip-rule="nonzero"/></clipPath></defs><g clip-path="url(#60e5e69de5)"><path fill="#a0fc05" d="M 46.183594 43.347656 L 11.703125 43.339844 C 2.390625 43.222656 0.0078125 31.734375 0.00390625 24.308594 C 0 19.210938 0.492188 9.386719 6.257812 7.777344 C 6.503906 7.707031 6.726562 7.617188 6.980469 7.59375 L 28.78125 7.535156 L 66.507812 7.535156 C 67 7.535156 67.519531 7.511719 68.007812 7.597656 L 68.089844 7.613281 C 74.449219 8.714844 75 18.671875 75 23.753906 L 74.953125 26.78125 C 74.59375 32.394531 72.503906 40.824219 66.558594 42.824219 C 65.132812 43.304688 63.636719 43.339844 62.152344 43.34375 Z M 14.363281 9.695312 L 10.292969 9.695312 C 9.214844 9.695312 7.972656 9.5625 6.929688 9.859375 C 2.613281 11.074219 2.214844 20.226562 2.21875 23.859375 L 2.253906 26.371094 C 2.539062 30.878906 3.675781 35.8125 6.8125 39.199219 L 7.460938 37.113281 C 7.96875 35.519531 8.808594 33.28125 10.789062 33.191406 L 60.777344 33.203125 L 63.25 33.195312 C 63.785156 33.195312 64.355469 33.148438 64.878906 33.277344 L 64.964844 33.296875 C 67.734375 33.992188 67.746094 38.730469 68.332031 39.128906 C 73.476562 33.503906 73.488281 22.390625 71.921875 15.484375 C 71.410156 13.21875 70.40625 10.082031 67.679688 9.726562 C 67.089844 9.648438 66.449219 9.691406 65.851562 9.691406 Z M 10.816406 35.359375 C 9.789062 35.898438 8.992188 39.40625 8.707031 40.554688 C 9.957031 41.09375 11.21875 41.222656 12.5625 41.234375 L 62.203125 41.226562 C 62.824219 41.21875 63.445312 41.101562 64.070312 41.097656 C 64.917969 41 65.632812 40.878906 66.398438 40.5 L 65.457031 37.425781 C 65.214844 36.703125 65.03125 35.378906 64.070312 35.355469 Z M 10.816406 35.359375 " fill-opacity="1" fill-rule="nonzero"/></g><path fill="#a0fc05" d="M 10.113281 21.089844 C 6.308594 21.40625 5.542969 15.789062 9.625 15.179688 C 13.609375 14.921875 14.1875 20.589844 10.113281 21.089844 Z M 9.664062 17.351562 C 8.835938 17.742188 8.976562 18.988281 10.054688 18.816406 C 10.984375 18.421875 10.71875 17.152344 9.664062 17.351562 Z M 9.664062 17.351562 " fill-opacity="1" fill-rule="nonzero"/><path fill="#a0fc05" d="M 65.722656 21.09375 C 61.917969 21.539062 60.699219 16.152344 64.789062 15.171875 C 68.683594 14.765625 69.773438 20.109375 65.722656 21.09375 Z M 65.117188 17.300781 C 64.21875 17.683594 64.328125 18.957031 65.472656 18.84375 C 66.414062 18.394531 66.117188 17.09375 65.117188 17.300781 Z M 65.117188 17.300781 " fill-opacity="1" fill-rule="nonzero"/><path fill="#a0fc05" d="M 64.164062 27.886719 L 11.082031 27.847656 C 9.777344 27.792969 9.640625 26.0625 11.050781 25.691406 L 63.898438 25.695312 C 64.09375 25.699219 64.3125 25.695312 64.484375 25.800781 L 64.703125 25.957031 C 65.472656 26.640625 65.050781 27.648438 64.164062 27.886719 Z M 64.164062 27.886719 " fill-opacity="1" fill-rule="nonzero"/><path fill="#a0fc05" d="M 59.964844 39.367188 L 15.605469 39.332031 C 15.363281 39.332031 14.949219 39.371094 14.722656 39.285156 C 13.507812 38.820312 13.917969 37.542969 14.929688 37.183594 L 59.621094 37.1875 C 59.832031 37.191406 60.097656 37.183594 60.285156 37.292969 L 60.335938 37.324219 C 61.210938 37.875 60.957031 39.183594 59.964844 39.367188 Z M 59.964844 39.367188 " fill-opacity="1" fill-rule="nonzero"/><g clip-path="url(#bfa933bdc9)"><path fill="#a0fc05" d="M 54.683594 64.734375 C 54.214844 64.769531 53.886719 64.703125 53.597656 64.28125 C 52.714844 62.988281 54.671875 62.226562 55.363281 61.484375 C 57.339844 59.363281 56.273438 57.039062 55.289062 54.890625 C 54.601562 53.390625 53.855469 49.746094 55.898438 48.96875 C 57.699219 48.863281 57.066406 50.378906 56.84375 51.273438 C 56.421875 52.953125 57.71875 54.628906 58.257812 56.140625 C 59.363281 59.246094 57.839844 63.605469 54.683594 64.734375 Z M 54.683594 64.734375 " fill-opacity="1" fill-rule="nonzero"/></g><g clip-path="url(#fa3acaac73)"><path fill="#a0fc05" d="M 24.636719 64.664062 C 24.046875 64.722656 23.464844 64.46875 23.296875 63.847656 C 23.027344 62.820312 24.292969 62.320312 24.914062 61.773438 C 28.199219 58.878906 25.898438 56.464844 24.988281 53.300781 C 24.628906 52.035156 24.699219 49.453125 26.289062 49.019531 C 28.542969 48.921875 27.050781 51.125 27.058594 51.992188 C 27.078125 54.8125 30.164062 56.949219 28.359375 60.785156 C 27.652344 62.289062 26.242188 64.085938 24.636719 64.664062 Z M 24.636719 64.664062 " fill-opacity="1" fill-rule="nonzero"/></g><g clip-path="url(#506fd66448)"><path fill="#a0fc05" d="M 39.710938 64.671875 C 38.921875 64.671875 38.046875 63.871094 38.5 63.0625 C 38.777344 62.5625 39.496094 62.191406 39.925781 61.816406 C 41.101562 60.792969 41.8125 59.148438 41.558594 57.59375 C 41.316406 56.117188 40.421875 54.820312 39.988281 53.398438 C 39.585938 52.082031 39.625 49.5 41.269531 49.019531 L 41.664062 49.023438 C 43.148438 49.234375 42.25 50.824219 42.132812 51.425781 L 42.117188 51.496094 C 41.574219 54.308594 45.632812 57.0625 43.003906 61.515625 C 42.398438 62.542969 40.910156 64.359375 39.710938 64.671875 Z M 39.710938 64.671875 " fill-opacity="1" fill-rule="nonzero"/></g><g clip-path="url(#989860e0ee)"><path fill="#a0fc05" d="M 17.003906 64.570312 L 16.90625 64.550781 C 16.4375 64.457031 15.921875 64.164062 15.832031 63.65625 C 15.535156 61.949219 19.828125 61.589844 19.164062 57.578125 C 18.894531 55.9375 17.675781 54.648438 17.378906 53.035156 C 17.144531 51.746094 17.308594 49.359375 18.929688 49.074219 C 20.75 49 19.828125 50.652344 19.625 51.484375 C 19.359375 52.5625 19.898438 53.660156 20.355469 54.601562 C 22.128906 58.265625 21.832031 60.863281 18.496094 63.710938 C 18.023438 64.113281 17.628906 64.449219 17.003906 64.570312 Z M 17.003906 64.570312 " fill-opacity="1" fill-rule="nonzero"/></g><g clip-path="url(#0ac48c500e)"><path fill="#a0fc05" d="M 32.296875 64.671875 C 31.742188 64.707031 31.261719 64.601562 31.023438 64.019531 C 30.179688 61.96875 36.265625 61.636719 33.40625 55.542969 C 33.167969 55.035156 32.882812 54.550781 32.6875 54.023438 C 32.175781 52.652344 31.929688 49.726562 33.6875 49.070312 C 35.429688 48.839844 35.160156 50.070312 34.714844 51.136719 C 33.511719 54.023438 39.722656 58.246094 33.785156 63.648438 C 33.316406 64.074219 32.886719 64.433594 32.296875 64.671875 Z M 32.296875 64.671875 " fill-opacity="1" fill-rule="nonzero"/></g><g clip-path="url(#ca89627f45)"><path fill="#a0fc05" d="M 47.160156 64.679688 L 46.875 64.667969 C 46.296875 64.589844 45.867188 64.035156 45.941406 63.460938 L 45.953125 63.382812 C 46.125 62.140625 50.597656 60.882812 48.578125 56.136719 C 48.136719 55.101562 47.566406 54.125 47.3125 53.019531 C 47.039062 51.835938 47.152344 49.386719 48.683594 49.078125 C 50.695312 49.039062 49.714844 50.488281 49.472656 51.539062 C 48.847656 54.246094 53.359375 57.015625 50.167969 61.996094 C 49.535156 62.980469 48.351562 64.417969 47.160156 64.679688 Z M 47.160156 64.679688 " fill-opacity="1" fill-rule="nonzero"/></g></svg>