<svg xmlns="http://www.w3.org/2000/svg" xmlns:xlink="http://www.w3.org/1999/xlink" width="100" zoomAndPan="magnify" viewBox="0 0 75 74.999997" height="100" preserveAspectRatio="xMidYMid meet" version="1.0"><defs><clipPath id="dccc9b7afb"><path d="M 9.65625 0 L 65.15625 0 L 65.15625 75 L 9.65625 75 Z M 9.65625 0 " clip-rule="nonzero"/></clipPath></defs><g clip-path="url(#dccc9b7afb)"><path fill="#a0fc05" d="M 44.761719 37.5 C 44.761719 38.175781 44.21875 38.714844 43.546875 38.714844 L 31.453125 38.714844 C 30.78125 38.714844 30.238281 38.175781 30.238281 37.5 C 30.238281 36.824219 30.78125 36.285156 31.453125 36.285156 L 43.546875 36.285156 C 44.21875 36.285156 44.761719 36.824219 44.761719 37.5 Z M 43.546875 12.089844 L 31.453125 12.089844 C 30.78125 12.089844 30.238281 12.628906 30.238281 13.304688 C 30.238281 13.980469 30.78125 14.519531 31.453125 14.519531 L 43.546875 14.519531 C 44.21875 14.519531 44.761719 13.980469 44.761719 13.304688 C 44.761719 12.644531 44.21875 12.089844 43.546875 12.089844 Z M 65.324219 22.980469 C 65.324219 23.925781 64.933594 24.75 64.335938 25.394531 C 64.921875 26.039062 65.324219 26.878906 65.324219 27.808594 L 65.324219 47.160156 C 65.324219 48.105469 64.933594 48.929688 64.335938 49.574219 C 64.921875 50.21875 65.324219 51.058594 65.324219 51.988281 L 65.324219 71.339844 C 65.324219 73.351562 63.703125 74.96875 61.695312 74.96875 L 13.304688 74.96875 C 11.296875 75 9.675781 73.378906 9.675781 71.371094 L 9.675781 52.019531 C 9.675781 51.074219 10.066406 50.25 10.664062 49.605469 C 10.078125 48.960938 9.675781 48.121094 9.675781 47.191406 L 9.675781 27.839844 C 9.675781 26.894531 10.066406 26.070312 10.664062 25.425781 C 10.078125 24.78125 9.675781 23.941406 9.675781 23.011719 L 9.675781 3.660156 C 9.675781 1.621094 11.296875 0 13.304688 0 L 61.695312 0 C 63.691406 0 65.324219 1.621094 65.324219 3.628906 Z M 62.894531 52.019531 C 62.894531 51.34375 62.355469 50.804688 61.679688 50.804688 L 13.304688 50.804688 C 12.628906 50.804688 12.089844 51.34375 12.089844 52.019531 L 12.089844 71.371094 C 12.089844 72.046875 12.628906 72.585938 13.304688 72.585938 L 61.695312 72.585938 C 62.371094 72.585938 62.910156 72.046875 62.910156 71.371094 L 62.910156 52.019531 Z M 62.894531 27.824219 C 62.894531 27.148438 62.355469 26.609375 61.679688 26.609375 L 13.304688 26.609375 C 12.628906 26.609375 12.089844 27.148438 12.089844 27.824219 L 12.089844 47.175781 C 12.089844 47.851562 12.628906 48.390625 13.304688 48.390625 L 61.695312 48.390625 C 62.371094 48.390625 62.910156 47.851562 62.910156 47.175781 L 62.910156 27.824219 Z M 62.894531 3.628906 C 62.894531 2.953125 62.355469 2.414062 61.679688 2.414062 L 13.304688 2.414062 C 12.628906 2.414062 12.089844 2.953125 12.089844 3.628906 L 12.089844 22.980469 C 12.089844 23.65625 12.628906 24.195312 13.304688 24.195312 L 61.695312 24.195312 C 62.371094 24.195312 62.910156 23.65625 62.910156 22.980469 L 62.910156 3.628906 Z M 43.546875 60.480469 L 31.453125 60.480469 C 30.78125 60.480469 30.238281 61.019531 30.238281 61.695312 C 30.238281 62.371094 30.78125 62.910156 31.453125 62.910156 L 43.546875 62.910156 C 44.21875 62.910156 44.761719 62.371094 44.761719 61.695312 C 44.761719 61.019531 44.21875 60.480469 43.546875 60.480469 Z M 43.546875 60.480469 " fill-opacity="1" fill-rule="evenodd"/></g></svg>