<svg xmlns="http://www.w3.org/2000/svg" xmlns:xlink="http://www.w3.org/1999/xlink" width="100" zoomAndPan="magnify" viewBox="0 0 75 74.999997" height="100" preserveAspectRatio="xMidYMid meet" version="1.0"><defs><clipPath id="07298707ba"><path d="M 0 30 L 55 30 L 55 74.25 L 0 74.25 Z M 0 30 " clip-rule="nonzero"/></clipPath><clipPath id="7413f7212f"><path d="M 47 0 L 75 0 L 75 74.25 L 47 74.25 Z M 47 0 " clip-rule="nonzero"/></clipPath></defs><g clip-path="url(#07298707ba)"><path fill="#a0fc05" d="M 54.34375 62.632812 L 54.34375 53.515625 C 54.34375 50.277344 51.9375 47.585938 48.816406 47.140625 L 47.957031 43.75 L 50.535156 43.75 C 51.203125 43.75 51.742188 43.207031 51.742188 42.542969 C 51.742188 41.875 51.203125 41.335938 50.535156 41.335938 L 47.34375 41.335938 L 46.359375 37.441406 C 45.300781 33.265625 41.554688 30.351562 37.246094 30.351562 L 17.113281 30.351562 C 12.816406 30.351562 9.070312 33.257812 8.003906 37.421875 L 7.003906 41.332031 L 3.835938 41.332031 C 3.167969 41.332031 2.628906 41.871094 2.628906 42.539062 C 2.628906 43.207031 3.167969 43.746094 3.835938 43.746094 L 6.386719 43.746094 L 5.515625 47.144531 C 2.414062 47.605469 0.0273438 50.289062 0.0273438 53.515625 L 0.0273438 62.632812 C 0.0273438 65.035156 1.980469 66.988281 4.382812 66.988281 L 4.421875 66.988281 L 4.421875 71.132812 C 4.421875 72.851562 5.820312 74.25 7.542969 74.25 L 11.253906 74.25 C 12.972656 74.25 14.371094 72.851562 14.371094 71.132812 L 14.371094 66.988281 L 39.105469 66.988281 C 39.945312 66.988281 40.628906 67.671875 40.628906 68.511719 L 40.628906 71.132812 C 40.628906 72.851562 42.027344 74.25 43.746094 74.25 L 47.457031 74.25 C 49.179688 74.25 50.578125 72.851562 50.578125 71.132812 L 50.578125 66.945312 C 52.703125 66.660156 54.34375 64.835938 54.34375 62.632812 Z M 11.957031 71.132812 C 11.957031 71.519531 11.640625 71.839844 11.25 71.839844 L 7.539062 71.839844 C 7.152344 71.839844 6.835938 71.523438 6.835938 71.132812 L 6.835938 66.988281 L 11.957031 66.988281 Z M 51.929688 62.632812 C 51.929688 63.703125 51.058594 64.574219 49.988281 64.574219 L 45.9375 64.574219 C 45.269531 64.574219 44.730469 65.113281 44.730469 65.78125 C 44.730469 66.449219 45.269531 66.988281 45.9375 66.988281 L 48.164062 66.988281 L 48.164062 71.132812 C 48.164062 71.519531 47.847656 71.835938 47.457031 71.835938 L 43.746094 71.835938 C 43.359375 71.835938 43.042969 71.519531 43.042969 71.132812 L 43.042969 68.511719 C 43.042969 66.339844 41.277344 64.574219 39.105469 64.574219 L 4.382812 64.574219 C 3.3125 64.574219 2.441406 63.703125 2.441406 62.632812 L 2.441406 53.515625 C 2.441406 51.296875 4.25 49.488281 6.472656 49.488281 C 7.023438 49.488281 7.503906 49.113281 7.640625 48.578125 L 10.34375 38.019531 C 11.136719 34.925781 13.917969 32.765625 17.113281 32.765625 L 37.246094 32.765625 C 40.449219 32.765625 43.230469 34.933594 44.019531 38.035156 L 46.308594 47.070312 L 11.550781 47.070312 C 10.882812 47.070312 10.34375 47.613281 10.34375 48.277344 C 10.34375 48.945312 10.882812 49.488281 11.550781 49.488281 L 47.898438 49.488281 C 50.121094 49.488281 51.929688 51.292969 51.929688 53.515625 Z M 51.929688 62.632812 " fill-opacity="1" fill-rule="nonzero"/></g><path fill="#a0fc05" d="M 9.355469 52.992188 C 6.863281 52.992188 4.835938 55.019531 4.835938 57.511719 C 4.835938 60.003906 6.863281 62.03125 9.355469 62.03125 C 11.847656 62.03125 13.871094 60.003906 13.871094 57.511719 C 13.871094 55.019531 11.847656 52.992188 9.355469 52.992188 Z M 9.355469 59.617188 C 8.195312 59.617188 7.25 58.671875 7.25 57.511719 C 7.25 56.351562 8.195312 55.410156 9.355469 55.410156 C 10.515625 55.410156 11.457031 56.351562 11.457031 57.511719 C 11.457031 58.671875 10.515625 59.617188 9.355469 59.617188 Z M 9.355469 59.617188 " fill-opacity="1" fill-rule="nonzero"/><path fill="#a0fc05" d="M 45.015625 52.992188 C 42.527344 52.992188 40.5 55.019531 40.5 57.511719 C 40.5 60.003906 42.527344 62.03125 45.015625 62.03125 C 47.507812 62.03125 49.535156 60.003906 49.535156 57.511719 C 49.535156 55.019531 47.507812 52.992188 45.015625 52.992188 Z M 45.015625 59.617188 C 43.855469 59.617188 42.914062 58.671875 42.914062 57.511719 C 42.914062 56.351562 43.855469 55.410156 45.015625 55.410156 C 46.175781 55.410156 47.121094 56.351562 47.121094 57.511719 C 47.121094 58.671875 46.175781 59.617188 45.015625 59.617188 Z M 45.015625 59.617188 " fill-opacity="1" fill-rule="nonzero"/><path fill="#a0fc05" d="M 35.609375 53.410156 L 18.761719 53.410156 C 17.273438 53.410156 16.0625 54.621094 16.0625 56.113281 L 16.0625 58.910156 C 16.0625 60.398438 17.269531 61.609375 18.761719 61.609375 L 35.609375 61.609375 C 37.097656 61.609375 38.308594 60.402344 38.308594 58.910156 L 38.308594 56.113281 C 38.308594 54.625 37.097656 53.410156 35.609375 53.410156 Z M 35.894531 58.910156 C 35.894531 59.066406 35.765625 59.195312 35.609375 59.195312 L 18.761719 59.195312 C 18.605469 59.195312 18.476562 59.066406 18.476562 58.910156 L 18.476562 56.113281 C 18.476562 55.953125 18.605469 55.828125 18.761719 55.828125 L 35.609375 55.828125 C 35.765625 55.828125 35.894531 55.953125 35.894531 56.113281 Z M 35.894531 58.910156 " fill-opacity="1" fill-rule="nonzero"/><g clip-path="url(#7413f7212f)"><path fill="#a0fc05" d="M 66.230469 26.238281 C 71.492188 24.203125 74.964844 19.046875 74.878906 13.40625 C 74.824219 9.910156 73.429688 6.609375 70.949219 4.105469 C 68.46875 1.601562 65.179688 0.179688 61.6875 0.09375 C 58.007812 0.00390625 54.535156 1.367188 51.90625 3.933594 C 49.273438 6.5 47.824219 9.941406 47.824219 13.617188 C 47.824219 20.425781 52.914062 26.199219 59.664062 27.039062 C 59.941406 27.074219 60.144531 27.3125 60.144531 27.59375 L 60.144531 71.835938 L 54.574219 71.835938 C 53.90625 71.835938 53.367188 72.375 53.367188 73.042969 C 53.367188 73.710938 53.90625 74.25 54.574219 74.25 L 68.136719 74.25 C 68.800781 74.25 69.34375 73.710938 69.34375 73.042969 C 69.34375 72.375 68.800781 71.835938 68.136719 71.835938 L 62.5625 71.835938 L 62.5625 27.59375 C 62.5625 26.097656 61.445312 24.828125 59.964844 24.644531 C 54.421875 23.953125 50.242188 19.214844 50.242188 13.617188 C 50.242188 10.597656 51.433594 7.773438 53.59375 5.664062 C 55.753906 3.554688 58.613281 2.429688 61.632812 2.507812 C 64.5 2.578125 67.199219 3.75 69.238281 5.808594 C 71.277344 7.867188 72.425781 10.578125 72.46875 13.445312 C 72.539062 18.078125 69.683594 22.316406 65.363281 23.988281 C 64.742188 24.226562 64.433594 24.925781 64.671875 25.546875 C 64.910156 26.167969 65.609375 26.476562 66.230469 26.238281 Z M 66.230469 26.238281 " fill-opacity="1" fill-rule="nonzero"/></g><path fill="#a0fc05" d="M 62.242188 7.457031 L 58.683594 7.457031 C 58.015625 7.457031 57.476562 8 57.476562 8.664062 L 57.476562 18.570312 C 57.476562 19.234375 58.015625 19.777344 58.683594 19.777344 C 59.351562 19.777344 59.890625 19.234375 59.890625 18.570312 L 59.890625 14.824219 L 62.242188 14.824219 C 64.273438 14.824219 65.925781 13.171875 65.925781 11.140625 C 65.925781 9.113281 64.273438 7.457031 62.242188 7.457031 Z M 62.242188 12.410156 L 59.890625 12.410156 L 59.890625 9.871094 L 62.242188 9.871094 C 62.941406 9.871094 63.511719 10.441406 63.511719 11.140625 C 63.511719 11.839844 62.941406 12.410156 62.242188 12.410156 Z M 62.242188 12.410156 " fill-opacity="1" fill-rule="nonzero"/></svg>