<svg xmlns="http://www.w3.org/2000/svg" xmlns:xlink="http://www.w3.org/1999/xlink" width="100" zoomAndPan="magnify" viewBox="0 0 75 74.999997" height="100" preserveAspectRatio="xMidYMid meet" version="1.0"><defs><clipPath id="0f22b8a115"><path d="M 30.480469 29.042969 L 68.171875 29.042969 L 68.171875 74.714844 L 30.480469 74.714844 Z M 30.480469 29.042969 " clip-rule="nonzero"/></clipPath><clipPath id="2abf51a74a"><path d="M 6.796875 0 L 49 0 L 49 65 L 6.796875 65 Z M 6.796875 0 " clip-rule="nonzero"/></clipPath></defs><g clip-path="url(#0f22b8a115)"><path fill="#a0fc05" d="M 65.390625 68.40625 L 49.273438 72.726562 C 48.691406 72.878906 48.070312 72.523438 47.910156 71.941406 L 46.5625 66.90625 C 46.484375 66.613281 46.523438 66.324219 46.675781 66.066406 C 46.820312 65.800781 47.058594 65.625 47.351562 65.550781 L 63.460938 61.230469 C 63.558594 61.203125 63.65625 61.1875 63.75 61.1875 C 64.253906 61.1875 64.695312 61.527344 64.828125 62.007812 L 66.175781 67.050781 C 66.335938 67.640625 65.976562 68.246094 65.390625 68.40625 Z M 34.503906 51.449219 C 33.851562 50.492188 33.40625 49.289062 34.101562 48.820312 C 35.105469 48.125 38.21875 48.78125 40.941406 52.46875 C 41.039062 52.605469 41.113281 52.703125 41.171875 52.785156 L 42.757812 51.652344 C 42.679688 51.535156 42.59375 51.421875 42.507812 51.3125 C 38.289062 45.4375 32.09375 35.378906 32.753906 32.386719 C 32.820312 32.074219 32.945312 32.007812 33.003906 31.976562 C 34.359375 31.210938 39.53125 36.871094 42.292969 41.472656 L 43.300781 43.136719 L 44.03125 41.339844 C 44.265625 40.769531 45.121094 39.246094 46.304688 38.941406 C 47.027344 38.769531 47.84375 39.039062 48.738281 39.78125 L 49.425781 40.339844 L 50.046875 39.71875 C 50.058594 39.707031 51.507812 38.347656 53.011719 38.40625 C 53.8125 38.425781 54.53125 38.800781 55.207031 39.546875 L 55.878906 40.273438 L 56.609375 39.59375 C 56.613281 39.589844 57.578125 38.6875 58.582031 38.886719 C 59.523438 39.066406 60.222656 40.15625 60.644531 41.035156 C 62.929688 45.832031 62.890625 56.410156 62.832031 59.378906 L 47.972656 63.363281 C 46.128906 62.0625 37.417969 55.777344 34.503906 51.449219 Z M 68.058594 66.542969 L 66.710938 61.5 C 66.445312 60.527344 65.695312 59.773438 64.78125 59.4375 C 64.855469 56.351562 64.902344 45.441406 62.402344 40.195312 C 61.503906 38.304688 60.335938 37.222656 58.921875 36.964844 C 57.722656 36.746094 56.679688 37.203125 56.011719 37.613281 C 55.128906 36.871094 54.136719 36.480469 53.058594 36.457031 C 51.425781 36.4375 50.09375 37.222656 49.324219 37.789062 C 48.136719 37.011719 46.960938 36.765625 45.824219 37.058594 C 44.582031 37.375 43.667969 38.285156 43.082031 39.113281 C 40.925781 35.933594 35.375 28.421875 32.050781 30.269531 C 31.429688 30.621094 31.023438 31.210938 30.851562 31.96875 C 30.164062 35.09375 34.0625 42.027344 37.285156 47.066406 C 35.585938 46.421875 34.027344 46.492188 32.992188 47.214844 C 31.820312 48.019531 31.09375 49.898438 32.886719 52.546875 C 35.621094 56.597656 42.703125 61.960938 45.777344 64.183594 C 45.460938 64.425781 45.1875 64.730469 44.984375 65.089844 C 44.574219 65.796875 44.46875 66.621094 44.679688 67.40625 L 46.027344 72.441406 C 46.390625 73.785156 47.601562 74.714844 48.980469 74.714844 L 48.988281 74.714844 C 49.246094 74.714844 49.523438 74.675781 49.773438 74.609375 L 65.890625 70.296875 C 67.523438 69.851562 68.496094 68.175781 68.058594 66.542969 " fill-opacity="1" fill-rule="nonzero"/></g><path fill="#a0fc05" d="M 28.496094 58.109375 C 28.496094 58.699219 28.023438 59.175781 27.433594 59.175781 C 26.84375 59.175781 26.371094 58.699219 26.371094 58.109375 C 26.371094 57.527344 26.84375 57.046875 27.433594 57.046875 C 28.015625 57.046875 28.496094 57.527344 28.496094 58.109375 Z M 24.421875 58.109375 C 24.421875 59.773438 25.773438 61.125 27.433594 61.125 C 29.09375 61.125 30.445312 59.773438 30.445312 58.109375 C 30.445312 56.453125 29.09375 55.097656 27.433594 55.097656 C 25.773438 55.097656 24.421875 56.453125 24.421875 58.109375 " fill-opacity="1" fill-rule="nonzero"/><path fill="#a0fc05" d="M 23.296875 19.203125 L 18.921875 19.203125 L 18.921875 14.828125 L 23.296875 14.828125 Z M 25.246094 12.886719 L 16.972656 12.886719 L 16.972656 21.152344 L 25.246094 21.152344 L 25.246094 12.886719 " fill-opacity="1" fill-rule="nonzero"/><path fill="#a0fc05" d="M 35.945312 19.203125 L 31.570312 19.203125 L 31.570312 14.828125 L 35.945312 14.828125 Z M 37.894531 12.886719 L 29.621094 12.886719 L 29.621094 21.152344 L 37.894531 21.152344 L 37.894531 12.886719 " fill-opacity="1" fill-rule="nonzero"/><path fill="#a0fc05" d="M 23.296875 31.445312 L 18.921875 31.445312 L 18.921875 27.074219 L 23.296875 27.074219 Z M 25.246094 25.125 L 16.972656 25.125 L 16.972656 33.402344 L 25.246094 33.402344 L 25.246094 25.125 " fill-opacity="1" fill-rule="nonzero"/><path fill="#a0fc05" d="M 18.921875 39.316406 L 23.296875 39.316406 L 23.296875 43.691406 L 18.921875 43.691406 Z M 16.972656 45.640625 L 25.246094 45.640625 L 25.246094 37.367188 L 16.972656 37.367188 L 16.972656 45.640625 " fill-opacity="1" fill-rule="nonzero"/><g clip-path="url(#2abf51a74a)"><path fill="#a0fc05" d="M 13.523438 62.648438 C 10.886719 62.648438 8.746094 60.507812 8.746094 57.871094 L 8.746094 7.019531 C 8.746094 4.382812 10.886719 2.234375 13.523438 2.234375 L 41.34375 2.234375 C 43.972656 2.234375 46.121094 4.382812 46.121094 7.019531 L 46.121094 35.066406 C 46.332031 35.042969 46.542969 34.988281 46.753906 34.988281 C 47.199219 34.988281 47.632812 35.046875 48.070312 35.148438 L 48.070312 7.019531 C 48.070312 3.304688 45.050781 0.285156 41.335938 0.285156 L 13.53125 0.285156 C 9.816406 0.285156 6.796875 3.304688 6.796875 7.019531 L 6.796875 57.871094 C 6.796875 61.585938 9.816406 64.597656 13.53125 64.597656 L 41.34375 64.597656 C 41.851562 64.597656 42.347656 64.53125 42.824219 64.425781 C 42.101562 63.878906 41.328125 63.285156 40.53125 62.65625 L 13.53125 62.65625 L 13.523438 62.648438 " fill-opacity="1" fill-rule="nonzero"/></g><path fill="#a0fc05" d="M 43.34375 36.105469 C 43.558594 35.953125 43.773438 35.839844 43.992188 35.722656 L 43.992188 8.476562 C 43.992188 6.355469 42.269531 4.625 40.140625 4.625 L 14.726562 4.625 C 12.597656 4.625 10.875 6.355469 10.875 8.476562 L 10.875 50.042969 C 10.875 52.167969 12.597656 53.902344 14.726562 53.902344 L 31.472656 53.894531 C 31.40625 53.808594 31.324219 53.722656 31.273438 53.628906 C 30.875 53.054688 30.605469 52.492188 30.378906 51.945312 L 14.726562 51.945312 C 13.675781 51.945312 12.824219 51.09375 12.824219 50.042969 L 12.824219 8.476562 C 12.824219 7.425781 13.675781 6.574219 14.726562 6.574219 L 40.140625 6.574219 C 41.191406 6.574219 42.042969 7.425781 42.042969 8.476562 L 42.042969 34.402344 C 42.472656 34.941406 42.910156 35.496094 43.34375 36.105469 " fill-opacity="1" fill-rule="nonzero"/><path fill="#a0fc05" d="M 37.894531 30.085938 L 37.894531 25.125 L 29.621094 25.125 L 29.621094 29.96875 C 30.003906 29.390625 30.492188 28.910156 31.101562 28.566406 C 31.253906 28.488281 31.410156 28.445312 31.570312 28.382812 L 31.570312 27.074219 L 35.945312 27.074219 L 35.945312 28.816406 C 36.578125 29.148438 37.21875 29.550781 37.894531 30.085938 " fill-opacity="1" fill-rule="nonzero"/><path fill="#a0fc05" d="M 29.878906 37.367188 L 29.621094 37.367188 L 29.621094 45.640625 L 31.847656 45.640625 C 31.859375 45.628906 31.875 45.613281 31.886719 45.601562 C 32.402344 45.25 32.992188 44.992188 33.632812 44.839844 C 33.394531 44.4375 33.183594 44.066406 32.972656 43.691406 L 31.570312 43.691406 L 31.570312 41.101562 C 30.835938 39.652344 30.28125 38.417969 29.878906 37.367188 " fill-opacity="1" fill-rule="nonzero"/></svg>