<?xml version="1.0" encoding="iso-8859-1"?>
<!-- Uploaded to: SVG Repo, www.svgrepo.com, Generator: SVG Repo Mixer Tools -->
<svg fill="#f4f4f5" height="800px" width="800px" version="1.1" id="Layer_1" xmlns="http://www.w3.org/2000/svg" xmlns:xlink="http://www.w3.org/1999/xlink" 
	 viewBox="0 0 512 512" xml:space="preserve">
<g>
	<g>
		<path d="M344.467,0H167.533c-24.085,0-43.68,19.595-43.68,43.68V468.32c0,24.085,19.595,43.68,43.68,43.68h176.933
			c24.085,0,43.68-19.595,43.68-43.68V43.68C388.147,19.595,368.552,0,344.467,0z M371.559,468.32
			c0,14.939-12.154,27.093-27.093,27.093H167.533c-14.939,0-27.093-12.154-27.093-27.093v-27.093h231.119V468.32z M371.559,424.639
			H140.441V87.361h231.119V424.639z M371.559,70.773H140.441V43.68c0-14.939,12.154-27.093,27.093-27.093h176.933
			c14.939,0,27.093,12.154,27.093,27.093V70.773z"/>
	</g>
</g>
<g>
	<g>
		<path d="M282.54,35.387h-53.08c-4.58,0-8.294,3.713-8.294,8.294c0,4.58,3.713,8.294,8.294,8.294h53.08
			c4.58,0,8.294-3.713,8.294-8.294C290.834,39.1,287.12,35.387,282.54,35.387z"/>
	</g>
</g>
<g>
	<g>
		<path d="M185.227,389.253h-17.693c-4.58,0-8.294,3.713-8.294,8.294c0,4.58,3.713,8.294,8.294,8.294h17.693
			c4.58,0,8.294-3.713,8.294-8.294C193.521,392.966,189.807,389.253,185.227,389.253z"/>
	</g>
</g>
<g>
	<g>
		<path d="M238.307,389.253h-17.693c-4.58,0-8.294,3.713-8.294,8.294c0,4.58,3.713,8.294,8.294,8.294h17.693
			c4.58,0,8.294-3.713,8.294-8.294C246.6,392.966,242.887,389.253,238.307,389.253z"/>
	</g>
</g>
<g>
	<g>
		<path d="M291.387,389.253h-17.693c-4.58,0-8.294,3.713-8.294,8.294c0,4.58,3.713,8.294,8.294,8.294h17.693
			c4.58,0,8.294-3.713,8.294-8.294C299.68,392.966,295.967,389.253,291.387,389.253z"/>
	</g>
</g>
<g>
	<g>
		<path d="M344.467,389.253h-17.693c-4.58,0-8.294,3.713-8.294,8.294c0,4.58,3.713,8.294,8.294,8.294h17.693
			c4.58,0,8.294-3.713,8.294-8.294C352.76,392.966,349.047,389.253,344.467,389.253z"/>
	</g>
</g>
<g>
	<g>
		<path d="M256,452.285c-8.841,0-16.035,7.193-16.035,16.035s7.193,16.035,16.035,16.035c8.841,0,16.035-7.193,16.035-16.035
			S264.841,452.285,256,452.285z M256,468.873c-0.305,0-0.553-0.248-0.553-0.553s0.248-0.553,0.553-0.553
			c0.305,0,0.553,0.248,0.553,0.553S256.305,468.873,256,468.873z"/>
	</g>
</g>
<g>
	<g>
		<path d="M238.307,291.94h-70.773c-4.58,0-8.294,3.713-8.294,8.294v53.08c0,4.58,3.713,8.294,8.294,8.294h70.773
			c4.58,0,8.294-3.713,8.294-8.294v-53.08C246.6,295.653,242.887,291.94,238.307,291.94z M230.013,345.019h-54.186v-36.492h54.186
			V345.019z"/>
	</g>
</g>
<g>
	<g>
		<path d="M238.307,203.473h-70.773c-4.58,0-8.294,3.713-8.294,8.294v53.08c0,4.58,3.713,8.294,8.294,8.294h70.773
			c4.58,0,8.294-3.713,8.294-8.294v-53.08C246.6,207.186,242.887,203.473,238.307,203.473z M230.013,256.553h-54.186V220.06h54.186
			V256.553z"/>
	</g>
</g>
<g>
	<g>
		<path d="M238.307,115.006h-70.773c-4.58,0-8.294,3.713-8.294,8.294v53.08c0,4.58,3.713,8.294,8.294,8.294h70.773
			c4.58,0,8.294-3.713,8.294-8.294V123.3C246.6,118.72,242.887,115.006,238.307,115.006z M230.013,168.086h-54.186v-36.492h54.186
			V168.086z"/>
	</g>
</g>
<g>
	<g>
		<path d="M344.467,123.853h-70.773c-4.58,0-8.294,3.713-8.294,8.294c0,4.58,3.713,8.294,8.294,8.294h70.773
			c4.58,0,8.294-3.713,8.294-8.294C352.76,127.567,349.047,123.853,344.467,123.853z"/>
	</g>
</g>
<g>
	<g>
		<path d="M309.08,159.24h-35.387c-4.58,0-8.294,3.713-8.294,8.294c0,4.58,3.713,8.294,8.294,8.294h35.387
			c4.58,0,8.294-3.713,8.294-8.294C317.374,162.953,313.66,159.24,309.08,159.24z"/>
	</g>
</g>
<g>
	<g>
		<path d="M344.467,212.32h-70.773c-4.58,0-8.294,3.713-8.294,8.294c0,4.58,3.713,8.294,8.294,8.294h70.773
			c4.58,0,8.294-3.713,8.294-8.294C352.76,216.033,349.047,212.32,344.467,212.32z"/>
	</g>
</g>
<g>
	<g>
		<path d="M309.08,247.706h-35.387c-4.58,0-8.294,3.713-8.294,8.294c0,4.58,3.713,8.294,8.294,8.294h35.387
			c4.58,0,8.294-3.713,8.294-8.294C317.374,251.42,313.66,247.706,309.08,247.706z"/>
	</g>
</g>
<g>
	<g>
		<path d="M344.467,300.786h-70.773c-4.58,0-8.294,3.713-8.294,8.294c0,4.58,3.713,8.294,8.294,8.294h70.773
			c4.58,0,8.294-3.713,8.294-8.294C352.76,304.5,349.047,300.786,344.467,300.786z"/>
	</g>
</g>
<g>
	<g>
		<path d="M309.08,336.173h-35.387c-4.58,0-8.294,3.713-8.294,8.294c0,4.58,3.713,8.294,8.294,8.294h35.387
			c4.58,0,8.294-3.713,8.294-8.294C317.374,339.886,313.66,336.173,309.08,336.173z"/>
	</g>
</g>
</svg>