<?xml version="1.0" encoding="iso-8859-1"?>
<!-- Uploaded to: SVG Repo, www.svgrepo.com, Generator: SVG Repo Mixer Tools -->
<svg fill="#f4f4f5" version="1.1" id="Layer_1" xmlns="http://www.w3.org/2000/svg" xmlns:xlink="http://www.w3.org/1999/xlink" 
	 viewBox="0 0 512 512" xml:space="preserve">
<g>
	<g>
		<path d="M216.159,191.953v249.923c0,12.386-10.077,22.463-22.464,22.463H70.124c-12.386,0-22.463-10.077-22.463-22.463V190.211
			c0-12.386,10.077-22.463,22.463-22.463h49.777v-15.637H70.124c-21.008,0-38.1,17.092-38.1,38.1v251.665
			c0,21.008,17.092,38.1,38.1,38.1h123.571c21.008,0,38.101-17.092,38.101-38.1V191.953H216.159z"/>
	</g>
</g>
<g>
	<g>
		<path d="M441.876,152.111h-49.777v15.637h49.777c12.386,0,22.463,10.077,22.463,22.463v251.665
			c0,12.386-10.077,22.463-22.463,22.463H318.305c-12.387,0-22.464-10.077-22.464-22.463V191.953h-15.637v249.923
			c0,21.008,17.093,38.1,38.101,38.1h123.571c21.008,0,38.1-17.092,38.1-38.1V190.211
			C479.976,169.203,462.884,152.111,441.876,152.111z"/>
	</g>
</g>
<g>
	<g>
		<path d="M467.639,0H44.361C19.9,0,0,19.9,0,44.361v423.278C0,492.1,19.9,512,44.361,512h423.278C492.1,512,512,492.1,512,467.639
			V44.361C512,19.9,492.1,0,467.639,0z M15.637,103.796h125.165c-1.341,2.727-2.586,5.508-3.734,8.34H15.637V103.796z
			 M467.639,496.363H44.361c-15.839,0-28.724-12.885-28.724-28.724V127.773h116.242c-2.678,10.278-4.106,21.054-4.106,32.157v24.138
			h256.453V159.93c0-11.103-1.428-21.878-4.106-32.157h116.242v339.866h0.001C496.363,483.476,483.477,496.363,467.639,496.363z
			 M144.485,144.453c3.345-24.083,14.376-45.748,30.541-62.445L188.2,95.182l11.056-11.058l-12.591-12.59
			c17.073-13.344,38.092-21.884,60.994-23.563v21.424h15.637V47.904c23.306,1.494,44.705,10.084,62.037,23.63l-12.591,12.59
			l11.056,11.058l13.174-13.174c16.165,16.697,27.197,38.362,30.541,62.445h-23.945v15.637h25.02v8.34H263.295v-16.68h-15.637v16.68
			H143.408v-8.34h25.02v-15.637H144.485z M496.363,112.136h-121.43c-1.148-2.831-2.394-5.613-3.734-8.34h125.165V112.136z
			 M496.363,88.158H362.083c-23.093-33.855-62.028-56.135-106.084-56.135c-44.056,0-82.991,22.28-106.084,56.135H15.637V44.361
			c0-15.839,12.885-28.724,28.724-28.724h423.278c15.838,0,28.724,12.885,28.724,28.724V88.158z"/>
	</g>
</g>
<g>
	<g>
		<path d="M256,120.248c-6.021,0-11.731,1.356-16.854,3.764l-33.659-33.66L194.43,101.41l32.018,32.019
			c-6.391,7.078-10.289,16.439-10.289,26.661h15.637c0-13.552,10.858-24.205,24.205-24.205c13.347,0,24.205,10.652,24.205,24.205
			h15.637C295.842,138.198,277.969,120.248,256,120.248z"/>
	</g>
</g>
<g>
	<g>
		<rect x="40.204" y="40.204" width="95.909" height="15.637"/>
	</g>
</g>
<g>
	<g>
		<rect x="456.153" y="40.204" width="15.637" height="15.637"/>
	</g>
</g>
<g>
	<g>
		<rect x="423.835" y="40.204" width="16.68" height="15.637"/>
	</g>
</g>
<g>
	<g>
		<rect x="392.561" y="40.204" width="15.637" height="15.637"/>
	</g>
</g>
</svg>