<svg xmlns="http://www.w3.org/2000/svg" xmlns:xlink="http://www.w3.org/1999/xlink" width="100" zoomAndPan="magnify" viewBox="0 0 75 74.999997" height="100" preserveAspectRatio="xMidYMid meet" version="1.0"><defs><clipPath id="044561c32c"><path d="M 1.5 2 L 73.5 2 L 73.5 75 L 1.5 75 Z M 1.5 2 " clip-rule="nonzero"/></clipPath></defs><g clip-path="url(#044561c32c)"><path fill="#a0fc05" d="M 63.5 11.03125 L 57.71875 11.03125 C 57.046875 10.382812 56.347656 9.769531 55.617188 9.1875 C 54.890625 8.605469 54.132812 8.0625 53.351562 7.554688 C 52.570312 7.042969 51.765625 6.574219 50.941406 6.144531 C 50.113281 5.710938 49.269531 5.324219 48.40625 4.972656 C 47.539062 4.625 46.660156 4.316406 45.765625 4.050781 C 44.875 3.785156 43.96875 3.5625 43.054688 3.386719 C 42.140625 3.207031 41.21875 3.074219 40.289062 2.984375 C 39.363281 2.894531 38.429688 2.851562 37.5 2.851562 C 36.566406 2.851562 35.636719 2.894531 34.707031 2.984375 C 33.78125 3.074219 32.859375 3.207031 31.945312 3.386719 C 31.027344 3.5625 30.125 3.785156 29.230469 4.050781 C 28.335938 4.316406 27.457031 4.625 26.59375 4.972656 C 25.730469 5.324219 24.882812 5.710938 24.058594 6.144531 C 23.230469 6.574219 22.425781 7.042969 21.644531 7.554688 C 20.863281 8.0625 20.109375 8.605469 19.378906 9.1875 C 18.652344 9.769531 17.953125 10.382812 17.28125 11.03125 L 11.5 11.03125 C 10.84375 11.03125 10.191406 11.097656 9.550781 11.226562 C 8.90625 11.355469 8.28125 11.542969 7.675781 11.796875 C 7.066406 12.046875 6.492188 12.355469 5.945312 12.71875 C 5.402344 13.085938 4.894531 13.5 4.429688 13.964844 C 3.96875 14.429688 3.554688 14.933594 3.1875 15.476562 C 2.824219 16.023438 2.515625 16.601562 2.265625 17.207031 C 2.011719 17.8125 1.824219 18.4375 1.695312 19.082031 C 1.566406 19.726562 1.5 20.375 1.5 21.03125 L 1.5 64.847656 C 1.5 65.503906 1.566406 66.15625 1.695312 66.796875 C 1.820312 67.441406 2.011719 68.066406 2.261719 68.671875 C 2.515625 69.28125 2.824219 69.855469 3.1875 70.402344 C 3.550781 70.949219 3.96875 71.453125 4.429688 71.917969 C 4.894531 72.382812 5.398438 72.796875 5.945312 73.160156 C 6.492188 73.527344 7.066406 73.832031 7.671875 74.085938 C 8.28125 74.335938 8.90625 74.527344 9.546875 74.65625 C 10.191406 74.785156 10.84375 74.847656 11.5 74.851562 L 63.5 74.851562 C 64.15625 74.847656 64.804688 74.785156 65.449219 74.65625 C 66.09375 74.527344 66.71875 74.335938 67.324219 74.085938 C 67.929688 73.832031 68.507812 73.527344 69.054688 73.160156 C 69.597656 72.796875 70.105469 72.382812 70.566406 71.917969 C 71.03125 71.453125 71.445312 70.949219 71.8125 70.402344 C 72.175781 69.855469 72.484375 69.28125 72.734375 68.671875 C 72.988281 68.066406 73.175781 67.441406 73.304688 66.796875 C 73.433594 66.15625 73.5 65.503906 73.5 64.847656 L 73.5 21.03125 C 73.5 20.375 73.433594 19.726562 73.304688 19.082031 C 73.175781 18.4375 72.988281 17.8125 72.734375 17.207031 C 72.484375 16.601562 72.175781 16.023438 71.8125 15.476562 C 71.445312 14.933594 71.03125 14.429688 70.566406 13.964844 C 70.101562 13.5 69.597656 13.085938 69.050781 12.71875 C 68.507812 12.355469 67.929688 12.046875 67.324219 11.796875 C 66.71875 11.542969 66.09375 11.355469 65.449219 11.226562 C 64.804688 11.097656 64.15625 11.03125 63.5 11.03125 Z M 71.316406 64.847656 C 71.316406 65.359375 71.265625 65.871094 71.167969 66.371094 C 71.066406 66.875 70.917969 67.363281 70.71875 67.839844 C 70.523438 68.3125 70.28125 68.761719 69.996094 69.191406 C 69.710938 69.617188 69.386719 70.011719 69.027344 70.375 C 68.664062 70.738281 68.269531 71.0625 67.839844 71.347656 C 67.414062 71.632812 66.964844 71.875 66.492188 72.070312 C 66.015625 72.265625 65.527344 72.417969 65.023438 72.515625 C 64.519531 72.617188 64.011719 72.667969 63.5 72.667969 L 11.5 72.667969 C 10.984375 72.667969 10.476562 72.617188 9.972656 72.515625 C 9.472656 72.414062 8.984375 72.265625 8.507812 72.070312 C 8.035156 71.875 7.585938 71.632812 7.15625 71.347656 C 6.730469 71.0625 6.335938 70.738281 5.972656 70.375 C 5.609375 70.011719 5.285156 69.617188 5 69.191406 C 4.71875 68.761719 4.476562 68.3125 4.28125 67.839844 C 4.082031 67.363281 3.933594 66.875 3.832031 66.371094 C 3.734375 65.871094 3.683594 65.359375 3.683594 64.847656 L 3.683594 21.03125 C 3.683594 20.519531 3.734375 20.011719 3.832031 19.507812 C 3.933594 19.003906 4.082031 18.515625 4.28125 18.042969 C 4.476562 17.566406 4.71875 17.117188 5.003906 16.691406 C 5.289062 16.265625 5.609375 15.867188 5.972656 15.507812 C 6.335938 15.144531 6.730469 14.820312 7.15625 14.535156 C 7.585938 14.25 8.035156 14.007812 8.507812 13.8125 C 8.984375 13.613281 9.472656 13.464844 9.972656 13.363281 C 10.476562 13.265625 10.984375 13.214844 11.5 13.214844 L 17.726562 13.214844 C 18.027344 13.214844 18.285156 13.105469 18.496094 12.894531 C 19.121094 12.273438 19.773438 11.683594 20.453125 11.125 C 21.132812 10.566406 21.839844 10.042969 22.570312 9.554688 C 23.304688 9.066406 24.058594 8.617188 24.832031 8.203125 C 25.609375 7.785156 26.40625 7.410156 27.21875 7.074219 C 28.03125 6.738281 28.859375 6.441406 29.699219 6.1875 C 30.542969 5.933594 31.394531 5.71875 32.257812 5.546875 C 33.121094 5.375 33.992188 5.246094 34.867188 5.160156 C 35.742188 5.074219 36.621094 5.03125 37.5 5.03125 C 38.378906 5.03125 39.257812 5.074219 40.132812 5.160156 C 41.007812 5.246094 41.878906 5.375 42.742188 5.546875 C 43.605469 5.71875 44.457031 5.933594 45.300781 6.1875 C 46.140625 6.441406 46.96875 6.738281 47.78125 7.074219 C 48.59375 7.410156 49.390625 7.785156 50.167969 8.203125 C 50.941406 8.617188 51.695312 9.066406 52.429688 9.554688 C 53.160156 10.042969 53.867188 10.566406 54.546875 11.125 C 55.226562 11.683594 55.878906 12.273438 56.503906 12.894531 C 56.714844 13.105469 56.972656 13.214844 57.273438 13.214844 L 63.5 13.214844 C 64.011719 13.214844 64.519531 13.265625 65.023438 13.363281 C 65.527344 13.464844 66.015625 13.613281 66.488281 13.8125 C 66.964844 14.007812 67.414062 14.25 67.839844 14.535156 C 68.269531 14.820312 68.664062 15.144531 69.027344 15.503906 C 69.386719 15.867188 69.710938 16.261719 69.996094 16.691406 C 70.28125 17.117188 70.523438 17.566406 70.71875 18.039062 C 70.917969 18.515625 71.066406 19.003906 71.167969 19.507812 C 71.265625 20.011719 71.316406 20.519531 71.316406 21.03125 Z M 71.316406 64.847656 " fill-opacity="1" fill-rule="nonzero"/></g><path fill="#a0fc05" d="M 37.5 9.6875 C 35.605469 9.6875 33.734375 9.917969 31.898438 10.378906 C 30.058594 10.839844 28.304688 11.519531 26.632812 12.417969 C 24.960938 13.3125 23.425781 14.402344 22.027344 15.679688 C 20.625 16.957031 19.402344 18.386719 18.355469 19.96875 C 18.132812 20.308594 18.105469 20.660156 18.273438 21.03125 L 23.726562 32.851562 C 23.816406 33.042969 23.953125 33.199219 24.132812 33.3125 C 24.3125 33.425781 24.507812 33.484375 24.71875 33.484375 L 50.28125 33.484375 C 50.492188 33.484375 50.6875 33.425781 50.867188 33.3125 C 51.046875 33.199219 51.183594 33.042969 51.273438 32.851562 L 56.726562 21.027344 C 56.894531 20.65625 56.867188 20.304688 56.644531 19.964844 C 55.597656 18.386719 54.375 16.957031 52.972656 15.675781 C 51.574219 14.398438 50.035156 13.3125 48.367188 12.414062 C 46.695312 11.519531 44.941406 10.839844 43.101562 10.378906 C 41.261719 9.914062 39.394531 9.683594 37.5 9.6875 Z M 41.898438 31.304688 L 33.101562 31.304688 C 33.222656 30.8125 33.421875 30.351562 33.695312 29.925781 C 33.96875 29.5 34.304688 29.132812 34.703125 28.820312 C 35.105469 28.507812 35.542969 28.265625 36.023438 28.101562 C 36.5 27.933594 36.992188 27.851562 37.5 27.851562 C 38.007812 27.851562 38.5 27.933594 38.980469 28.101562 C 39.457031 28.265625 39.898438 28.507812 40.296875 28.820312 C 40.695312 29.132812 41.03125 29.5 41.308594 29.925781 C 41.582031 30.351562 41.777344 30.8125 41.898438 31.304688 Z M 49.582031 31.304688 L 44.132812 31.304688 C 43.953125 30.234375 43.539062 29.261719 42.890625 28.390625 C 42.242188 27.519531 41.433594 26.84375 40.457031 26.363281 L 42.394531 20.25 C 42.476562 19.964844 42.445312 19.695312 42.304688 19.4375 C 42.164062 19.179688 41.953125 19.003906 41.675781 18.914062 C 41.394531 18.828125 41.121094 18.847656 40.859375 18.976562 C 40.59375 19.109375 40.414062 19.3125 40.316406 19.589844 L 38.367188 25.738281 C 38.078125 25.695312 37.789062 25.671875 37.5 25.667969 C 37.105469 25.667969 36.710938 25.703125 36.324219 25.773438 C 35.933594 25.84375 35.554688 25.945312 35.183594 26.082031 C 34.8125 26.21875 34.457031 26.386719 34.113281 26.585938 C 33.773438 26.785156 33.453125 27.015625 33.152344 27.269531 C 32.851562 27.527344 32.574219 27.808594 32.320312 28.113281 C 32.070312 28.417969 31.847656 28.742188 31.652344 29.085938 C 31.457031 29.429688 31.292969 29.789062 31.164062 30.160156 C 31.03125 30.535156 30.933594 30.914062 30.871094 31.304688 L 25.417969 31.304688 L 20.515625 20.679688 C 21.972656 18.613281 23.75 16.867188 25.84375 15.449219 L 27.226562 17.804688 C 27.441406 18.164062 27.753906 18.34375 28.171875 18.34375 C 28.59375 18.34375 28.910156 18.160156 29.121094 17.792969 C 29.332031 17.421875 29.328125 17.058594 29.109375 16.695312 L 27.714844 14.320312 C 30.433594 12.867188 33.332031 12.058594 36.414062 11.902344 L 36.414062 14.578125 C 36.410156 14.726562 36.433594 14.867188 36.484375 15.007812 C 36.539062 15.144531 36.617188 15.269531 36.71875 15.375 C 36.820312 15.480469 36.941406 15.5625 37.078125 15.621094 C 37.214844 15.679688 37.355469 15.710938 37.503906 15.710938 C 37.652344 15.710938 37.796875 15.679688 37.933594 15.621094 C 38.070312 15.5625 38.1875 15.480469 38.292969 15.375 C 38.394531 15.269531 38.472656 15.144531 38.523438 15.007812 C 38.578125 14.867188 38.601562 14.726562 38.597656 14.578125 L 38.597656 11.902344 C 41.675781 12.058594 44.578125 12.863281 47.296875 14.320312 L 45.902344 16.695312 C 45.761719 16.953125 45.730469 17.222656 45.808594 17.507812 C 45.890625 17.789062 46.054688 18.003906 46.308594 18.152344 C 46.5625 18.304688 46.832031 18.34375 47.117188 18.273438 C 47.402344 18.207031 47.625 18.046875 47.78125 17.800781 L 49.15625 15.449219 C 51.25 16.871094 53.027344 18.617188 54.484375 20.683594 Z M 49.582031 31.304688 " fill-opacity="1" fill-rule="nonzero"/></svg>