<?xml version="1.0" encoding="utf-8"?>
<!-- Uploaded to: SVG Repo, www.svgrepo.com, Generator: SVG Repo Mixer Tools -->
<svg fill="#f4f4f5" width="800px" height="800px" viewBox="0 0 32 32" version="1.1" xmlns="http://www.w3.org/2000/svg">
<title>wifi</title>
<path d="M16 21.25c-2.071 0-3.75 1.679-3.75 3.75s1.679 3.75 3.75 3.75c2.071 0 3.75-1.679 3.75-3.75v0c-0.002-2.070-1.68-3.748-3.75-3.75h-0zM16 27.25c-1.243 0-2.25-1.007-2.25-2.25s1.007-2.25 2.25-2.25c1.243 0 2.25 1.007 2.25 2.25v0c-0.002 1.242-1.008 2.248-2.25 2.25h-0zM30.531 9.47c-3.798-3.624-8.87-5.942-14.479-6.218l-0.053-0.002c-5.661 0.278-10.733 2.596-14.539 6.228l0.009-0.008c-0.14 0.136-0.227 0.327-0.227 0.538 0 0.414 0.336 0.75 0.75 0.75 0.211 0 0.401-0.087 0.537-0.227l0-0c3.538-3.332 8.228-5.477 13.412-5.778l0.058-0.003c5.241 0.31 9.929 2.453 13.482 5.791l-0.011-0.011c0.135 0.131 0.32 0.212 0.523 0.212 0.414 0 0.75-0.336 0.75-0.75 0-0.203-0.081-0.388-0.213-0.523l0 0zM16 12.107c-4.102 0.201-7.778 1.88-10.537 4.511l0.006-0.006c-0.131 0.135-0.213 0.32-0.213 0.523 0 0.414 0.336 0.75 0.75 0.75 0.203 0 0.387-0.081 0.522-0.212l-0 0c2.49-2.339 5.786-3.846 9.429-4.064l0.042-0.002c3.685 0.22 6.981 1.727 9.479 4.074l-0.008-0.007c0.136 0.136 0.323 0.22 0.53 0.22 0.414 0 0.75-0.336 0.75-0.75 0-0.207-0.084-0.395-0.22-0.531v0c-2.753-2.625-6.429-4.304-10.493-4.503l-0.038-0.002z"></path>
</svg>