<svg xmlns="http://www.w3.org/2000/svg" xmlns:xlink="http://www.w3.org/1999/xlink" width="100" zoomAndPan="magnify" viewBox="0 0 75 74.999997" height="100" preserveAspectRatio="xMidYMid meet" version="1.0"><path fill="#a0fc05" d="M 37.570312 50.609375 C 33.675781 50.609375 30.507812 53.777344 30.507812 57.671875 C 30.507812 61.566406 33.675781 64.734375 37.570312 64.734375 C 41.464844 64.734375 44.632812 61.566406 44.632812 57.671875 C 44.632812 53.777344 41.464844 50.609375 37.570312 50.609375 Z M 37.570312 61.910156 C 35.234375 61.910156 33.332031 60.007812 33.332031 57.671875 C 33.332031 55.335938 35.234375 53.433594 37.570312 53.433594 C 39.90625 53.433594 41.808594 55.335938 41.808594 57.671875 C 41.808594 60.007812 39.90625 61.910156 37.570312 61.910156 Z M 37.570312 61.910156 " fill-opacity="1" fill-rule="nonzero"/><path fill="#a0fc05" d="M 37.570312 33.667969 C 31.160156 33.667969 25.128906 36.167969 20.59375 40.707031 C 20.039062 41.257812 20.039062 42.152344 20.59375 42.703125 C 21.144531 43.253906 22.035156 43.253906 22.589844 42.703125 C 26.59375 38.699219 31.914062 36.492188 37.570312 36.492188 C 43.222656 36.492188 48.546875 38.699219 52.550781 42.703125 C 52.824219 42.980469 53.1875 43.117188 53.546875 43.117188 C 53.910156 43.117188 54.269531 42.980469 54.546875 42.703125 C 55.097656 42.152344 55.097656 41.257812 54.546875 40.707031 C 50.011719 36.167969 43.980469 33.667969 37.570312 33.667969 Z M 37.570312 33.667969 " fill-opacity="1" fill-rule="nonzero"/><path fill="#a0fc05" d="M 37.570312 19.539062 C 27.390625 19.539062 17.8125 23.511719 10.605469 30.71875 C 10.050781 31.269531 10.050781 32.164062 10.605469 32.714844 C 11.15625 33.269531 12.050781 33.269531 12.601562 32.714844 C 19.277344 26.042969 28.144531 22.363281 37.570312 22.363281 C 46.996094 22.363281 55.863281 26.042969 62.539062 32.714844 C 62.816406 32.992188 63.175781 33.128906 63.539062 33.128906 C 63.898438 33.128906 64.261719 32.992188 64.535156 32.714844 C 65.089844 32.164062 65.089844 31.269531 64.535156 30.71875 C 57.328125 23.511719 47.75 19.539062 37.570312 19.539062 Z M 37.570312 19.539062 " fill-opacity="1" fill-rule="nonzero"/><path fill="#a0fc05" d="M 74.523438 20.730469 C 54.148438 0.355469 20.992188 0.355469 0.617188 20.730469 C 0.0664062 21.285156 0.0664062 22.175781 0.617188 22.730469 C 1.167969 23.28125 2.0625 23.28125 2.613281 22.730469 C 21.886719 3.453125 53.253906 3.453125 72.527344 22.730469 C 72.800781 23.003906 73.164062 23.144531 73.527344 23.144531 C 73.886719 23.144531 74.25 23.003906 74.523438 22.730469 C 75.078125 22.175781 75.078125 21.28125 74.523438 20.730469 Z M 74.523438 20.730469 " fill-opacity="1" fill-rule="nonzero"/></svg>